<?xml version="1.0" encoding="UTF-8"?>
<svg xmlns="http://www.w3.org/2000/svg" xmlns:xlink="http://www.w3.org/1999/xlink" width="1024px" height="1024px" viewBox="0 0 1024 1024" version="1.1">
<g id="surface1">
<path style=" stroke:none;fill-rule:nonzero;fill:rgb(0%,0%,0%);fill-opacity:1;" d="M 250.03125 125.9375 C 250.03125 195.53125 194.066406 251.90625 124.996094 251.90625 C 56 251.90625 0 195.53125 0 125.9375 C 0 56.40625 56 0 124.996094 0 C 194.0625 0 250.03125 56.40625 250.03125 125.9375 Z M 231.746094 341.28125 L 20.3125 341.28125 L 20.3125 1024 L 231.746094 1024 Z M 569.6875 341.28125 L 366.9375 341.28125 L 366.9375 1024 L 569.6875 1024 C 569.6875 1024 569.6875 770.78125 569.6875 665.625 C 569.6875 569.625 613.902344 512.496094 698.496094 512.496094 C 776.246094 512.496094 813.621094 567.34375 813.621094 665.625 C 813.621094 763.96875 813.621094 1024 813.621094 1024 L 1024 1024 C 1024 1024 1024 774.5625 1024 591.75 C 1024 408.8125 920.308594 320.46875 775.496094 320.46875 C 630.652344 320.46875 569.6875 433.28125 569.6875 433.28125 Z M 569.6875 341.28125 "/>
</g>
</svg>
